<svg xmlns="http://www.w3.org/2000/svg" xmlns:xlink="http://www.w3.org/1999/xlink" width="175" zoomAndPan="magnify" viewBox="0 0 131.25 54.749999" height="73" preserveAspectRatio="xMidYMid meet" version="1.0"><defs><clipPath id="99c4eccab6"><path d="M 0 0.03125 L 130.503906 0.03125 L 130.503906 54.46875 L 0 54.46875 Z M 0 0.03125 " clip-rule="nonzero"/></clipPath><clipPath id="1782da648b"><path d="M 111 14 L 129.757812 14 L 129.757812 40 L 111 40 Z M 111 14 " clip-rule="nonzero"/></clipPath><clipPath id="080f11942a"><path d="M 15 0.03125 L 40 0.03125 L 40 39 L 15 39 Z M 15 0.03125 " clip-rule="nonzero"/></clipPath><clipPath id="5598134c18"><path d="M 15 41 L 40 41 L 40 53.722656 L 15 53.722656 Z M 15 41 " clip-rule="nonzero"/></clipPath></defs><g clip-path="url(#99c4eccab6)"><path fill="#ffffff" d="M 0 0.03125 L 130.503906 0.03125 L 130.503906 54.46875 L 0 54.46875 Z M 0 0.03125 " fill-opacity="1" fill-rule="nonzero"/></g><path fill="#ffffff" d="M 98.007812 32.179688 C 98.007812 33.328125 98.582031 33.902344 99.730469 33.902344 L 108.351562 33.902344 L 108.351562 39.0625 L 99.730469 39.0625 C 95.132812 39.0625 92.832031 36.769531 92.832031 32.179688 L 92.832031 21.855469 C 92.832031 17.265625 95.132812 14.972656 99.730469 14.972656 L 108.351562 14.972656 L 108.351562 20.132812 L 99.730469 20.132812 C 98.582031 20.132812 98.007812 20.707031 98.007812 21.855469 Z M 98.007812 32.179688 " fill-opacity="1" fill-rule="nonzero"/><g clip-path="url(#1782da648b)"><path fill="#ffffff" d="M 111.796875 39.0625 L 111.796875 33.902344 L 122.140625 33.902344 C 123.289062 33.902344 123.863281 33.328125 123.863281 32.179688 L 123.863281 31.320312 C 123.863281 30.171875 123.289062 29.597656 122.140625 29.597656 L 118.691406 29.597656 C 114.09375 29.597656 111.796875 27.300781 111.796875 22.710938 L 111.796875 21.851562 C 111.796875 17.261719 114.09375 14.96875 118.691406 14.96875 L 129.035156 14.96875 L 129.035156 20.128906 L 118.691406 20.128906 C 117.542969 20.128906 116.96875 20.707031 116.96875 21.851562 L 116.96875 22.710938 C 116.96875 23.859375 117.542969 24.433594 118.691406 24.433594 L 122.140625 24.433594 C 126.738281 24.433594 129.035156 26.730469 129.035156 31.320312 L 129.035156 32.179688 C 129.035156 36.769531 126.738281 39.0625 122.140625 39.0625 Z M 111.796875 39.0625 " fill-opacity="1" fill-rule="nonzero"/></g><path fill="#ffffff" d="M 75.59375 14.972656 L 70.425781 14.972656 L 70.425781 39.0625 L 75.59375 39.0625 L 75.59375 24.433594 L 84.214844 39.0625 L 89.320312 39.0625 Z M 75.59375 14.972656 " fill-opacity="1" fill-rule="nonzero"/><path fill="#ffffff" d="M 89.386719 14.972656 L 84.214844 14.972656 L 84.214844 28.84375 L 89.386719 37.914062 Z M 89.386719 14.972656 " fill-opacity="1" fill-rule="nonzero"/><g clip-path="url(#080f11942a)"><path fill="#0999e8" d="M 39.558594 12.3125 L 39.558594 9.273438 C 39.558594 4.175781 35.402344 0.03125 30.296875 0.03125 L 24.824219 0.03125 C 19.71875 0.03125 15.566406 4.175781 15.566406 9.273438 L 15.566406 20.925781 L 33.523438 20.925781 L 33.523438 32.832031 L 21.597656 32.832031 L 21.597656 24.203125 L 15.5625 24.203125 L 15.5625 34.851562 C 15.5625 37.058594 17.359375 38.855469 19.570312 38.855469 L 35.546875 38.855469 C 37.757812 38.855469 39.554688 37.058594 39.554688 34.851562 L 39.554688 14.902344 L 21.601562 14.902344 C 21.601562 14.847656 21.597656 14.792969 21.597656 14.742188 L 21.597656 9.277344 C 21.597656 7.5 23.046875 6.054688 24.824219 6.054688 L 30.296875 6.054688 C 32.078125 6.054688 33.523438 7.5 33.523438 9.277344 L 33.523438 12.316406 L 39.558594 12.316406 Z M 39.558594 12.3125 " fill-opacity="1" fill-rule="nonzero"/></g><path fill="#ffffff" d="M 9.753906 32.832031 C 7.972656 32.832031 6.523438 31.386719 6.523438 29.609375 L 6.523438 24.148438 C 6.523438 22.371094 7.972656 20.925781 9.753906 20.925781 L 13.0625 20.925781 L 13.0625 14.902344 L 9.753906 14.902344 C 4.644531 14.902344 0.492188 19.050781 0.492188 24.148438 L 0.492188 29.609375 C 0.492188 34.707031 4.644531 38.855469 9.753906 38.855469 L 13.054688 38.855469 L 13.054688 32.828125 L 9.753906 32.828125 Z M 9.753906 32.832031 " fill-opacity="1" fill-rule="nonzero"/><g clip-path="url(#5598134c18)"><path fill="#ffffff" d="M 33.523438 44.480469 C 33.523438 46.257812 32.078125 47.703125 30.296875 47.703125 L 24.824219 47.703125 C 23.046875 47.703125 21.597656 46.257812 21.597656 44.480469 L 21.597656 41.308594 L 15.5625 41.308594 L 15.5625 44.480469 C 15.5625 49.578125 19.714844 53.722656 24.820312 53.722656 L 30.292969 53.722656 C 35.402344 53.722656 39.554688 49.578125 39.554688 44.480469 L 39.554688 41.316406 L 33.519531 41.316406 L 33.519531 44.480469 Z M 33.523438 44.480469 " fill-opacity="1" fill-rule="nonzero"/></g><path fill="#ffffff" d="M 45.167969 20.925781 C 46.949219 20.925781 48.398438 22.371094 48.398438 24.148438 L 48.398438 29.609375 C 48.398438 31.386719 46.949219 32.832031 45.167969 32.832031 L 42.125 32.832031 L 42.125 38.855469 L 45.167969 38.855469 C 50.277344 38.855469 54.429688 34.710938 54.429688 29.613281 L 54.429688 24.152344 C 54.429688 19.054688 50.277344 14.90625 45.167969 14.90625 L 42.128906 14.90625 L 42.128906 20.929688 L 45.167969 20.929688 Z M 45.167969 20.925781 " fill-opacity="1" fill-rule="nonzero"/><path fill="#ffffff" d="M 27.5625 22.917969 C 26.351562 22.917969 25.375 23.898438 25.375 25.105469 C 25.375 25.96875 25.875 26.714844 26.601562 27.070312 L 26.601562 29.875 C 26.601562 30.40625 27.035156 30.835938 27.5625 30.835938 C 28.089844 30.835938 28.523438 30.40625 28.523438 29.875 L 28.523438 27.070312 C 29.253906 26.714844 29.753906 25.96875 29.753906 25.105469 C 29.753906 23.898438 28.773438 22.917969 27.5625 22.917969 Z M 27.5625 22.917969 " fill-opacity="1" fill-rule="nonzero"/></svg>